<mxfile host="65bd71144e" modified="2024-06-12T09:19:55.336Z" agent="Mozilla/5.0 (Macintosh; Intel Mac OS X 10_15_7) AppleWebKit/537.36 (KHTML, like Gecko) Code/1.90.0 Chrome/122.0.6261.156 Electron/29.4.0 Safari/537.36" etag="Wgzs6I8E4E5JovWH7U7X" version="24.5.3" type="embed">
    <diagram id="2w8EBjmsWThqUGJhrnfE" name="Page-1">
        <mxGraphModel dx="694" dy="936" grid="1" gridSize="10" guides="1" tooltips="1" connect="1" arrows="1" fold="1" page="1" pageScale="1" pageWidth="850" pageHeight="1100" math="0" shadow="0">
            <root>
                <mxCell id="0"/>
                <mxCell id="1" parent="0"/>
                <mxCell id="Z1371Q1gL4IudR10YQaZ-2" value="" style="edgeStyle=orthogonalEdgeStyle;rounded=0;orthogonalLoop=1;jettySize=auto;html=1;" parent="1" source="3OcCnqjC3aLGW_zPTFTB-1" target="Z1371Q1gL4IudR10YQaZ-1" edge="1">
                    <mxGeometry relative="1" as="geometry"/>
                </mxCell>
                <mxCell id="RCIxWkGXm3GLwvp6eFWK-2" value="" style="edgeStyle=orthogonalEdgeStyle;rounded=0;orthogonalLoop=1;jettySize=auto;html=1;" parent="1" source="3OcCnqjC3aLGW_zPTFTB-1" target="RCIxWkGXm3GLwvp6eFWK-1" edge="1">
                    <mxGeometry relative="1" as="geometry"/>
                </mxCell>
                <mxCell id="3OcCnqjC3aLGW_zPTFTB-1" value="test" style="rounded=0;whiteSpace=wrap;html=1;" parent="1" vertex="1">
                    <mxGeometry x="40" y="40" width="120" height="60" as="geometry"/>
                </mxCell>
                <mxCell id="Z1371Q1gL4IudR10YQaZ-1" value="test" style="rounded=0;whiteSpace=wrap;html=1;" parent="1" vertex="1">
                    <mxGeometry x="40" y="180" width="120" height="60" as="geometry"/>
                </mxCell>
                <mxCell id="RCIxWkGXm3GLwvp6eFWK-1" value="test" style="rounded=0;whiteSpace=wrap;html=1;" parent="1" vertex="1">
                    <mxGeometry x="240" y="40" width="120" height="60" as="geometry"/>
                </mxCell>
            </root>
        </mxGraphModel>
    </diagram>
</mxfile>